<svg width="871.5" height="97.2" viewBox="0 0 871.5 97.2" xmlns="http://www.w3.org/2000/svg"><g id="svgGroup" stroke-linecap="round" fill-rule="evenodd" font-size="9pt" stroke="#ffffff" stroke-width="0.25mm" fill="#ffffff" style="stroke:#ffffff;stroke-width:0.25mm;fill:#ffffff"><path d="M 0 47.4 L 0 4 L 9.5 4 L 9.5 45.9 A 39.482 39.482 0 0 0 9.9 51.711 Q 10.781 57.619 13.6 61.4 A 13.242 13.242 0 0 0 22.056 66.556 A 20.418 20.418 0 0 0 25.9 66.9 A 21.386 21.386 0 0 0 30.904 66.351 A 13.455 13.455 0 0 0 38.6 61.55 A 17.382 17.382 0 0 0 41.396 56.155 Q 42.186 53.736 42.531 50.794 A 42.042 42.042 0 0 0 42.8 45.9 L 42.8 4 L 52 4 L 52 47 A 39.957 39.957 0 0 1 51.378 54.231 A 28.663 28.663 0 0 1 48.75 62.15 Q 45.5 68.5 39.65 71.85 A 25.023 25.023 0 0 1 31.089 74.804 A 32.816 32.816 0 0 1 25.9 75.2 A 32.706 32.706 0 0 1 17.895 74.275 A 22.492 22.492 0 0 1 6.9 68 Q 0.788 61.623 0.09 50.381 A 48.096 48.096 0 0 1 0 47.4 Z M 715.3 68.1 L 720.1 60.1 Q 723.7 63.1 728.2 65 A 23.348 23.348 0 0 0 733.57 66.51 A 32.118 32.118 0 0 0 738.7 66.9 A 27.981 27.981 0 0 0 743.247 66.554 Q 745.67 66.154 747.631 65.293 A 13.701 13.701 0 0 0 750.1 63.9 Q 754.148 61.008 754.295 56.166 A 12.116 12.116 0 0 0 754.3 55.8 A 11.94 11.94 0 0 0 753.963 52.907 A 9.816 9.816 0 0 0 753.1 50.65 A 8.097 8.097 0 0 0 751.9 48.994 Q 750.63 47.613 748.484 46.271 A 25.81 25.81 0 0 0 748.45 46.25 Q 745.334 44.308 739.565 42.08 A 118.584 118.584 0 0 0 738.3 41.6 Q 731.1 38.8 726.8 35.95 A 21.931 21.931 0 0 1 723.711 33.502 Q 721.994 31.853 720.938 29.987 A 13.303 13.303 0 0 1 720.65 29.45 Q 718.8 25.8 718.8 20.8 Q 718.8 15.8 721.55 11.75 Q 724.3 7.7 729.65 5.25 A 25.558 25.558 0 0 1 735.55 3.415 Q 738.793 2.8 742.6 2.8 Q 748.8 2.8 753.75 4.05 Q 758.7 5.3 763.4 7.6 L 759.9 15.7 A 31.496 31.496 0 0 0 755.774 13.681 A 41.686 41.686 0 0 0 751.95 12.35 Q 747.4 11 742.4 11 A 27.187 27.187 0 0 0 738.37 11.28 Q 736.238 11.6 734.5 12.287 A 12.616 12.616 0 0 0 732 13.6 A 9.902 9.902 0 0 0 729.837 15.565 A 7.359 7.359 0 0 0 728.2 20.3 A 10.464 10.464 0 0 0 728.492 22.822 A 8.562 8.562 0 0 0 729.3 24.9 Q 730.356 26.819 733.391 28.647 A 23.503 23.503 0 0 0 733.65 28.8 A 33.003 33.003 0 0 0 735.866 29.972 Q 738.135 31.075 741.346 32.323 A 130.016 130.016 0 0 0 743.4 33.1 A 81.228 81.228 0 0 1 748.378 35.129 Q 752.764 37.1 755.75 39.2 A 26.044 26.044 0 0 1 758.79 41.677 Q 761.013 43.806 762.2 46.15 A 17.579 17.579 0 0 1 763.941 52.013 A 22.155 22.155 0 0 1 764.1 54.7 A 21.71 21.71 0 0 1 763.433 60.201 A 17.105 17.105 0 0 1 760.85 65.8 Q 757.6 70.4 751.85 72.8 A 30.521 30.521 0 0 1 744.44 74.804 A 40.027 40.027 0 0 1 738.7 75.2 Q 731.4 75.2 725.4 73.25 A 38.206 38.206 0 0 1 720.033 71.068 A 28.433 28.433 0 0 1 715.3 68.1 Z M 545.8 74 L 536.8 74 L 536.8 0 L 545.8 0 L 545.8 30.3 Q 548.6 26.2 552.9 23.5 A 17.572 17.572 0 0 1 560.025 20.991 A 22.595 22.595 0 0 1 563 20.8 A 23.225 23.225 0 0 1 568.065 21.318 Q 573.159 22.456 576.15 26.1 Q 580.275 31.126 580.488 39.209 A 33.764 33.764 0 0 1 580.5 40.1 L 580.5 74 L 571.5 74 L 571.5 41.1 Q 571.5 35.5 568.9 32.1 A 8.42 8.42 0 0 0 562.742 28.753 A 11.979 11.979 0 0 0 561.6 28.7 A 13.23 13.23 0 0 0 554.887 30.566 A 17.586 17.586 0 0 0 552.85 31.95 Q 548.7 35.2 545.8 39.6 L 545.8 74 Z M 819.2 69 L 813 75 L 786.1 47.3 L 786.1 74 L 777.1 74 L 777.1 0 L 786.1 0 L 786.1 42.3 L 809.6 21 L 814.8 26.7 L 794.7 44.5 L 819.2 69 Z M 820.7 95.2 L 822.7 87.7 A 9.908 9.908 0 0 0 823.865 88.274 Q 824.688 88.619 825.7 88.9 A 13.514 13.514 0 0 0 827.979 89.317 A 17.358 17.358 0 0 0 829.7 89.4 Q 833.9 89.4 837.2 86.7 A 12.003 12.003 0 0 0 839.133 84.639 Q 840.881 82.328 842.541 78.475 A 58.58 58.58 0 0 0 843.5 76.1 L 845.8 70.1 L 841 70.1 L 820.7 24.4 L 828.7 20.8 L 848.1 64.1 L 863.2 21.2 L 871.5 24.4 L 852.4 76.6 A 71.728 71.728 0 0 1 850.347 81.686 Q 849.245 84.126 848.078 86.114 A 30.86 30.86 0 0 1 846.1 89.1 A 24.268 24.268 0 0 1 843.222 92.311 Q 841.308 94.079 839.205 95.118 A 14.737 14.737 0 0 1 838.6 95.4 Q 834.5 97.2 829.5 97.2 Q 826.5 97.2 824.25 96.6 Q 822 96 820.7 95.2 Z M 76.5 74 L 67.5 74 L 67.5 22 L 76.2 22 L 76.2 30.7 Q 79 26.5 83.35 23.65 A 17.316 17.316 0 0 1 90.456 21.025 A 22.629 22.629 0 0 1 93.7 20.8 A 23.225 23.225 0 0 1 98.765 21.318 Q 103.859 22.456 106.85 26.1 Q 110.975 31.126 111.188 39.209 A 33.764 33.764 0 0 1 111.2 40.1 L 111.2 74 L 102.2 74 L 102.2 41.1 A 19.265 19.265 0 0 0 101.858 37.359 Q 101.419 35.145 100.419 33.397 A 10.966 10.966 0 0 0 99.55 32.1 A 8.579 8.579 0 0 0 93.273 28.747 A 12.061 12.061 0 0 0 92.2 28.7 A 13.122 13.122 0 0 0 85.351 30.664 A 17.353 17.353 0 0 0 83.5 31.95 Q 79.4 35.2 76.5 39.6 L 76.5 74 Z M 387.1 74 L 378.1 74 L 378.1 22 L 386.8 22 L 386.8 30.7 Q 389.6 26.5 393.95 23.65 A 17.316 17.316 0 0 1 401.056 21.025 A 22.629 22.629 0 0 1 404.3 20.8 A 23.225 23.225 0 0 1 409.365 21.318 Q 414.459 22.456 417.45 26.1 Q 421.575 31.126 421.788 39.209 A 33.764 33.764 0 0 1 421.8 40.1 L 421.8 74 L 412.8 74 L 412.8 41.1 A 19.265 19.265 0 0 0 412.458 37.359 Q 412.019 35.145 411.019 33.397 A 10.966 10.966 0 0 0 410.15 32.1 A 8.579 8.579 0 0 0 403.873 28.747 A 12.061 12.061 0 0 0 402.8 28.7 A 13.122 13.122 0 0 0 395.951 30.664 A 17.353 17.353 0 0 0 394.1 31.95 Q 390 35.2 387.1 39.6 L 387.1 74 Z M 369.1 71.5 L 360.4 75 L 352.6 55 L 320.2 55 L 312.4 74.8 L 304.3 71.5 L 331.7 4 L 342.1 4 L 369.1 71.5 Z M 161.1 27.2 L 161.1 0 L 170.1 0 L 170.1 61.4 A 12.15 12.15 0 0 0 170.202 63.036 Q 170.534 65.47 171.95 66.35 Q 173.8 67.5 176 67.5 L 174.1 74.5 Q 164.6 74.5 162.5 66.9 Q 160.3 70 156.35 72.6 Q 152.4 75.2 146.4 75.2 Q 140 75.2 134.7 71.9 A 22.692 22.692 0 0 1 127.162 64.109 A 27.622 27.622 0 0 1 126.3 62.55 A 27.533 27.533 0 0 1 123.712 54.608 A 37.221 37.221 0 0 1 123.2 48.3 A 33.94 33.94 0 0 1 124.089 40.386 A 27.963 27.963 0 0 1 126.35 34.2 A 27.291 27.291 0 0 1 130.969 27.609 A 24.186 24.186 0 0 1 134.75 24.4 Q 140 20.8 146.3 20.8 A 21.642 21.642 0 0 1 150.572 21.202 A 15.942 15.942 0 0 1 155.25 22.9 A 34.343 34.343 0 0 1 157.83 24.489 Q 159.054 25.324 160.025 26.174 A 16.59 16.59 0 0 1 161.1 27.2 Z M 229.1 51.7 L 192.7 51.7 A 24.088 24.088 0 0 0 193.839 56.725 Q 195.175 60.538 197.8 63.1 Q 202 67.2 208.9 67.2 Q 213.4 67.2 217 66.25 Q 220.6 65.3 223.9 63.8 L 226 71.5 A 40.77 40.77 0 0 1 221.665 73.126 A 51.863 51.863 0 0 1 217.9 74.15 A 38.914 38.914 0 0 1 212.808 74.969 A 52.025 52.025 0 0 1 207.8 75.2 A 28.318 28.318 0 0 1 200.054 74.195 A 21.108 21.108 0 0 1 190.05 68.05 A 23.521 23.521 0 0 1 184.845 58.51 Q 183.5 53.845 183.5 48 A 35.359 35.359 0 0 1 184.333 40.178 A 28.84 28.84 0 0 1 186.45 34.05 A 24.642 24.642 0 0 1 191.466 26.968 A 22.887 22.887 0 0 1 194.7 24.35 A 21.048 21.048 0 0 1 204.959 20.878 A 26.205 26.205 0 0 1 207 20.8 Q 214.5 20.8 219.45 24.05 Q 224.4 27.3 226.9 32.8 A 28.185 28.185 0 0 1 229.326 42.664 A 33.434 33.434 0 0 1 229.4 44.9 A 75.204 75.204 0 0 1 229.109 51.597 A 69.426 69.426 0 0 1 229.1 51.7 Z M 638.1 51.7 L 601.7 51.7 A 24.088 24.088 0 0 0 602.839 56.725 Q 604.175 60.538 606.8 63.1 Q 611 67.2 617.9 67.2 Q 622.4 67.2 626 66.25 Q 629.6 65.3 632.9 63.8 L 635 71.5 A 40.77 40.77 0 0 1 630.665 73.126 A 51.863 51.863 0 0 1 626.9 74.15 A 38.914 38.914 0 0 1 621.808 74.969 A 52.025 52.025 0 0 1 616.8 75.2 A 28.318 28.318 0 0 1 609.054 74.195 A 21.108 21.108 0 0 1 599.05 68.05 A 23.521 23.521 0 0 1 593.845 58.51 Q 592.5 53.845 592.5 48 A 35.359 35.359 0 0 1 593.333 40.178 A 28.84 28.84 0 0 1 595.45 34.05 A 24.642 24.642 0 0 1 600.466 26.968 A 22.887 22.887 0 0 1 603.7 24.35 A 21.048 21.048 0 0 1 613.959 20.878 A 26.205 26.205 0 0 1 616 20.8 Q 623.5 20.8 628.45 24.05 Q 633.4 27.3 635.9 32.8 A 28.185 28.185 0 0 1 638.326 42.664 A 33.434 33.434 0 0 1 638.4 44.9 A 75.204 75.204 0 0 1 638.109 51.597 A 69.426 69.426 0 0 1 638.1 51.7 Z M 499.1 56.1 L 499.1 31.7 L 490.1 31.7 L 490.1 23.9 L 499.3 23.9 L 501.2 7.5 L 508.1 7.5 L 508.1 23.9 L 522.5 23.9 L 522.5 31.7 L 508.1 31.7 L 508.1 56.8 A 21.559 21.559 0 0 0 508.268 59.596 Q 508.741 63.202 510.55 64.9 Q 513 67.2 516.4 67.2 Q 518.9 67.2 521.15 66.4 Q 523.4 65.6 525.3 64.5 L 527.8 71.7 A 18.546 18.546 0 0 1 526.182 72.556 Q 525.38 72.935 524.435 73.308 A 43.365 43.365 0 0 1 522.4 74.05 Q 519 75.2 515.3 75.2 Q 507.8 75.2 503.45 70.25 A 16.116 16.116 0 0 1 500.222 64.348 Q 499.459 61.917 499.215 58.98 A 34.777 34.777 0 0 1 499.1 56.1 Z M 250.4 74 L 241.4 74 L 241.4 22 L 250.1 22 L 250.1 33.3 Q 251.4 30 253.6 27.15 Q 255.8 24.3 259.1 22.55 A 14.817 14.817 0 0 1 263.78 21.026 A 19.459 19.459 0 0 1 266.8 20.8 Q 268.3 20.8 269.8 20.95 A 18.972 18.972 0 0 1 270.855 21.084 Q 271.355 21.162 271.782 21.262 A 8.817 8.817 0 0 1 272.3 21.4 L 269.6 30.7 A 9.763 9.763 0 0 0 267.455 30.088 Q 266.359 29.9 265.1 29.9 A 12.958 12.958 0 0 0 258.47 31.746 A 15.609 15.609 0 0 0 258.05 32 Q 254.722 34.086 252.578 38.442 A 22.927 22.927 0 0 0 252.55 38.5 Q 250.787 42.107 250.47 47.328 A 39.09 39.09 0 0 0 250.4 49.7 L 250.4 74 Z M 659.4 74 L 650.4 74 L 650.4 22 L 659.1 22 L 659.1 33.3 Q 660.4 30 662.6 27.15 Q 664.8 24.3 668.1 22.55 A 14.817 14.817 0 0 1 672.78 21.026 A 19.459 19.459 0 0 1 675.8 20.8 Q 677.3 20.8 678.8 20.95 A 18.972 18.972 0 0 1 679.855 21.084 Q 680.355 21.162 680.782 21.262 A 8.817 8.817 0 0 1 681.3 21.4 L 678.6 30.7 A 9.763 9.763 0 0 0 676.455 30.088 Q 675.359 29.9 674.1 29.9 A 12.958 12.958 0 0 0 667.47 31.746 A 15.609 15.609 0 0 0 667.05 32 Q 663.722 34.086 661.578 38.442 A 22.927 22.927 0 0 0 661.55 38.5 Q 659.787 42.107 659.47 47.328 A 39.09 39.09 0 0 0 659.4 49.7 L 659.4 74 Z M 445.9 71.75 A 24.559 24.559 0 0 0 450.498 73.84 Q 454.553 75.2 459.2 75.2 Q 466.6 75.2 472.45 71.8 Q 478.3 68.4 481.7 62.25 A 26.255 26.255 0 0 0 484.353 55.109 A 34.184 34.184 0 0 0 485.1 47.8 A 34.542 34.542 0 0 0 484.615 41.891 A 25.795 25.795 0 0 0 481.65 33.45 Q 478.2 27.4 472.35 24.1 A 24.848 24.848 0 0 0 467.709 22.073 A 27.738 27.738 0 0 0 459.2 20.8 A 31.325 31.325 0 0 0 457.62 20.839 A 26.169 26.169 0 0 0 446 24.1 Q 440.1 27.4 436.7 33.5 A 26.023 26.023 0 0 0 433.951 41.09 A 35.006 35.006 0 0 0 433.3 48 A 34.82 34.82 0 0 0 433.565 52.354 A 27.451 27.451 0 0 0 436.65 62.15 Q 440 68.3 445.9 71.75 Z M 459.2 67.2 Q 467.1 67.2 471.5 61.85 A 18.802 18.802 0 0 0 475.319 53.76 A 27.105 27.105 0 0 0 475.9 48 Q 475.9 42.8 473.7 38.45 A 19.198 19.198 0 0 0 469.528 32.881 A 18.17 18.17 0 0 0 467.75 31.45 Q 464 28.8 459.2 28.8 A 19.249 19.249 0 0 0 453.974 29.472 A 14.037 14.037 0 0 0 446.9 34 A 17.878 17.878 0 0 0 443.226 41.374 Q 442.5 44.306 442.5 47.8 Q 442.5 53 444.7 57.45 A 19.437 19.437 0 0 0 448.23 62.49 A 17.627 17.627 0 0 0 450.65 64.55 Q 454.4 67.2 459.2 67.2 Z M 161.1 60.9 L 161.1 35.1 A 15.847 15.847 0 0 0 158.989 32.927 Q 157.868 31.964 156.469 31.066 A 28.139 28.139 0 0 0 155.8 30.65 Q 152.4 28.6 148.3 28.6 A 14.946 14.946 0 0 0 143.344 29.4 A 13.385 13.385 0 0 0 139.9 31.2 A 16.69 16.69 0 0 0 134.73 37.35 A 19.924 19.924 0 0 0 134.35 38.15 A 22.19 22.19 0 0 0 132.61 44.514 A 28.113 28.113 0 0 0 132.4 48 A 24.757 24.757 0 0 0 132.993 53.519 A 20.327 20.327 0 0 0 134.5 57.85 A 18.205 18.205 0 0 0 137.54 62.363 A 16.122 16.122 0 0 0 140.25 64.7 Q 143.9 67.2 148.4 67.2 Q 152.1 67.2 155.45 65.45 Q 158.8 63.7 161.1 60.9 Z M 336.4 13.4 L 323.2 47 L 349.5 47 L 336.4 13.4 Z M 192.6 44.4 L 221.1 44.4 A 24.355 24.355 0 0 0 220.696 39.815 Q 220.2 37.231 219.096 35.207 A 12.422 12.422 0 0 0 217.3 32.7 A 12.488 12.488 0 0 0 210.339 28.924 A 18.395 18.395 0 0 0 206.8 28.6 A 13.58 13.58 0 0 0 201.688 29.535 A 12.524 12.524 0 0 0 197.2 32.65 Q 193.4 36.7 192.6 44.4 Z M 601.6 44.4 L 630.1 44.4 A 24.355 24.355 0 0 0 629.696 39.815 Q 629.2 37.231 628.096 35.207 A 12.422 12.422 0 0 0 626.3 32.7 A 12.488 12.488 0 0 0 619.339 28.924 A 18.395 18.395 0 0 0 615.8 28.6 A 13.58 13.58 0 0 0 610.688 29.535 A 12.524 12.524 0 0 0 606.2 32.65 Q 602.4 36.7 601.6 44.4 Z" vector-effect="non-scaling-stroke"/></g></svg>